<?xml version="1.0" encoding="UTF-8"?>
<svg id="Layer_2" data-name="Layer 2" xmlns="http://www.w3.org/2000/svg" viewBox="0 0 400 400">
  <defs>
    <style>
      .cls-1 {
        fill: #231f20;
      }

      .cls-2 {
        fill: #ed1c24;
      }

      .cls-3 {
        fill: none;
      }
    </style>
  </defs>
  <g id="Layer_1-2" data-name="Layer 1">
    <g>
      <g>
        <path class="cls-1" d="M199.29,178.59l-39.04-16.26-15.97-39.34,16.4-39.37,39.17-16.38,39.04,16.26,15.96,39.34-16.39,39.36-39.17,16.39ZM166.88,155.76l32.4,13.49,32.58-13.63,13.67-32.82-13.28-32.73-32.39-13.49-32.58,13.63-13.67,32.82,13.29,32.73Z"/>
        <path class="cls-1" d="M199.29,179.28l-.24-.1-39.28-16.36-.1-.25-16.07-39.58,16.6-39.85,39.65-16.59,39.53,16.46,16.16,39.83-16.59,39.84-39.65,16.59ZM160.74,161.85l38.55,16.05,38.68-16.19,16.19-38.88-15.77-38.85-38.55-16.05-38.68,16.18-16.2,38.89,15.78,38.85ZM199.28,169.94l-32.89-13.7-13.49-33.22,13.87-33.3,33.07-13.83,32.88,13.69,13.48,33.22-13.87,33.3-33.06,13.84ZM167.37,155.28l31.91,13.29,32.09-13.43,13.46-32.34-13.09-32.24-31.9-13.29-32.1,13.43-13.47,32.34,13.09,32.24Z"/>
      </g>
      <g>
        <g>
          <path class="cls-2" d="M113.36,310.29c0-4.6,1.28-8.01,3.84-10.23,2.14-1.84,4.74-2.76,7.82-2.76,3.42,0,6.21,1.12,8.38,3.36,2.17,2.24,3.25,5.33,3.25,9.28,0,3.2-.48,5.71-1.44,7.55s-2.36,3.26-4.19,4.27c-1.83,1.01-3.83,1.52-6,1.52-3.48,0-6.29-1.12-8.44-3.35-2.15-2.23-3.22-5.45-3.22-9.64ZM117.69,310.29c0,3.18.69,5.57,2.08,7.15,1.39,1.58,3.14,2.38,5.24,2.38s3.83-.8,5.22-2.39c1.39-1.59,2.08-4.02,2.08-7.28,0-3.07-.7-5.4-2.09-6.98-1.4-1.58-3.13-2.38-5.21-2.38s-3.85.79-5.24,2.36c-1.39,1.58-2.08,3.95-2.08,7.14Z"/>
          <path class="cls-2" d="M125.01,323.92c-3.64,0-6.64-1.19-8.89-3.54-2.25-2.34-3.39-5.74-3.39-10.08,0-4.78,1.37-8.38,4.06-10.71,2.25-1.94,5.02-2.92,8.23-2.92,3.58,0,6.55,1.2,8.83,3.55,2.28,2.35,3.43,5.62,3.43,9.72,0,3.29-.51,5.93-1.51,7.84-1.01,1.94-2.51,3.46-4.44,4.53-1.92,1.06-4.04,1.6-6.31,1.6ZM125.01,297.94c-2.9,0-5.39.88-7.4,2.61-2.4,2.08-3.62,5.36-3.62,9.75,0,4.01,1.02,7.1,3.04,9.2,2.01,2.09,4.7,3.15,7.98,3.15,2.05,0,3.97-.49,5.7-1.44,1.71-.95,3.04-2.3,3.93-4.01.91-1.73,1.37-4.17,1.37-7.25,0-3.76-1.03-6.73-3.07-8.84-2.03-2.1-4.7-3.17-7.92-3.17ZM125.01,320.46c-2.29,0-4.21-.87-5.72-2.59-1.49-1.7-2.24-4.24-2.24-7.57s.75-5.87,2.24-7.56c1.51-1.71,3.43-2.58,5.72-2.58s4.17.87,5.68,2.59c1.5,1.7,2.25,4.19,2.25,7.41,0,3.4-.75,5.99-2.24,7.7-1.51,1.73-3.43,2.61-5.7,2.61ZM125.01,301.43c-1.93,0-3.49.7-4.77,2.15-1.28,1.45-1.92,3.71-1.92,6.72s.65,5.27,1.92,6.73c1.27,1.45,2.83,2.16,4.76,2.16s3.47-.71,4.74-2.17c1.28-1.47,1.93-3.77,1.93-6.86,0-2.9-.65-5.11-1.94-6.56-1.28-1.45-2.83-2.16-4.73-2.16Z"/>
        </g>
        <g>
          <path class="cls-2" d="M144.41,322.72v-24.85h3.79v3.77c.97-1.76,1.86-2.93,2.68-3.49.82-.56,1.72-.84,2.7-.84,1.42,0,2.86.45,4.33,1.36l-1.45,3.91c-1.03-.61-2.06-.91-3.09-.91-.92,0-1.75.28-2.48.83-.73.55-1.26,1.32-1.57,2.31-.47,1.5-.7,3.14-.7,4.92v13.01h-4.21Z"/>
          <path class="cls-2" d="M149.26,323.36h-5.48v-26.13h5.06v2.17c.58-.81,1.14-1.4,1.68-1.78.92-.63,1.95-.95,3.06-.95,1.53,0,3.1.49,4.66,1.45l.44.27-1.9,5.11-.65-.39c-.93-.55-1.86-.82-2.77-.82-.79,0-1.47.23-2.1.7-.63.48-1.07,1.13-1.35,1.99-.45,1.43-.67,3.02-.67,4.72v13.65ZM145.05,322.09h2.94v-12.38c0-1.83.25-3.55.73-5.1.35-1.11.95-1.99,1.79-2.62.84-.64,1.81-.96,2.86-.96.92,0,1.84.22,2.75.65l1.01-2.73c-1.21-.66-2.4-1-3.55-1-.86,0-1.63.24-2.34.73-.73.5-1.57,1.6-2.48,3.27l-1.19,2.17v-5.61h-2.52v23.58Z"/>
        </g>
        <g>
          <path class="cls-2" d="M162.52,324.78l4.1.61c.17,1.26.65,2.18,1.43,2.76,1.05.78,2.47,1.17,4.28,1.17,1.95,0,3.46-.39,4.52-1.17,1.06-.78,1.78-1.87,2.15-3.28.22-.86.32-2.66.3-5.41-1.84,2.17-4.13,3.25-6.88,3.25-3.42,0-6.06-1.23-7.93-3.7-1.87-2.47-2.81-5.42-2.81-8.87,0-2.37.43-4.56,1.29-6.56.86-2,2.1-3.55,3.73-4.65,1.63-1.09,3.55-1.64,5.74-1.64,2.93,0,5.35,1.19,7.26,3.56v-3h3.89v21.48c0,3.87-.39,6.61-1.18,8.23-.79,1.61-2.04,2.89-3.74,3.83-1.71.94-3.81,1.4-6.31,1.4-2.96,0-5.36-.67-7.18-2-1.83-1.33-2.71-3.34-2.65-6.03ZM166.01,309.85c0,3.26.65,5.64,1.94,7.14,1.3,1.5,2.92,2.25,4.87,2.25s3.56-.75,4.87-2.24c1.31-1.49,1.97-3.83,1.97-7.01s-.68-5.34-2.03-6.88c-1.35-1.54-2.98-2.32-4.88-2.32s-3.46.76-4.77,2.28c-1.31,1.52-1.97,3.78-1.97,6.78Z"/>
          <path class="cls-2" d="M172.35,333.44c-3.09,0-5.63-.71-7.56-2.12-2-1.46-2.97-3.66-2.91-6.55l.02-.72,5.28.79.06.47c.15,1.1.53,1.86,1.18,2.34.93.69,2.24,1.05,3.9,1.05,1.8,0,3.2-.35,4.14-1.05.95-.7,1.58-1.66,1.92-2.93.16-.63.25-1.86.28-3.68-1.75,1.55-3.85,2.33-6.24,2.33-3.61,0-6.45-1.33-8.44-3.95-1.95-2.57-2.94-5.68-2.94-9.25,0-2.45.45-4.74,1.34-6.81.9-2.11,2.24-3.77,3.96-4.92,1.73-1.16,3.78-1.75,6.1-1.75,2.57,0,4.79.86,6.62,2.57v-2.01h5.16v22.12c0,4-.41,6.79-1.25,8.51-.84,1.73-2.19,3.11-4.01,4.11-1.8.98-4.02,1.48-6.61,1.48ZM163.17,325.52c.1,2.11.88,3.68,2.38,4.77,1.71,1.25,4,1.88,6.81,1.88,2.38,0,4.39-.45,6-1.33,1.58-.87,2.75-2.06,3.48-3.55.74-1.52,1.12-4.19,1.12-7.95v-20.85h-2.61v4.17l-1.13-1.41c-1.79-2.23-4-3.32-6.76-3.32-2.06,0-3.87.52-5.39,1.53-1.52,1.02-2.7,2.49-3.5,4.37-.82,1.92-1.24,4.04-1.24,6.31,0,3.29.9,6.15,2.68,8.49,1.76,2.32,4.19,3.45,7.43,3.45,2.57,0,4.67-.99,6.4-3.03l1.11-1.31v1.72c.03,2.83-.08,4.65-.31,5.57-.41,1.55-1.22,2.77-2.39,3.63-1.17.86-2.81,1.29-4.89,1.29-1.94,0-3.51-.44-4.66-1.3-.81-.6-1.35-1.51-1.6-2.71l-2.9-.43ZM172.82,319.87c-2.13,0-3.93-.83-5.35-2.47-1.39-1.61-2.1-4.15-2.1-7.55,0-3.14.71-5.56,2.12-7.19,1.43-1.66,3.2-2.5,5.26-2.5s3.89.85,5.36,2.53c1.45,1.66,2.18,4.11,2.18,7.3s-.71,5.83-2.13,7.43c-1.43,1.63-3.23,2.45-5.34,2.45ZM172.75,301.43c-1.69,0-3.1.67-4.29,2.06-1.2,1.4-1.81,3.54-1.81,6.36,0,3.09.6,5.35,1.79,6.72,1.18,1.36,2.61,2.03,4.39,2.03s3.19-.66,4.39-2.02c1.2-1.36,1.81-3.58,1.81-6.59s-.63-5.04-1.87-6.46c-1.23-1.41-2.67-2.1-4.4-2.1Z"/>
        </g>
        <g>
          <path class="cls-2" d="M209.05,319.66c-1.56,1.33-3.06,2.26-4.5,2.81-1.44.55-2.99.82-4.65.82-2.73,0-4.83-.67-6.3-2s-2.2-3.04-2.2-5.11c0-1.22.28-2.33.83-3.34.55-1.01,1.28-1.81,2.18-2.42.9-.61,1.91-1.07,3.03-1.38.83-.22,2.08-.43,3.74-.63,3.4-.41,5.91-.89,7.51-1.45.02-.58.02-.94.02-1.1,0-1.72-.4-2.93-1.19-3.63-1.08-.95-2.68-1.43-4.8-1.43-1.98,0-3.44.35-4.39,1.04-.94.69-1.64,1.92-2.09,3.69l-4.12-.56c.37-1.76.99-3.19,1.85-4.27.86-1.08,2.1-1.92,3.72-2.5,1.62-.58,3.5-.88,5.64-.88s3.85.25,5.17.75c1.33.5,2.3,1.13,2.93,1.88.62.76,1.06,1.71,1.31,2.87.14.72.21,2.01.21,3.89v5.62c0,3.92.09,6.39.27,7.43.18,1.04.53,2.03,1.07,2.98h-4.4c-.44-.87-.72-1.9-.84-3.07ZM208.7,310.25c-1.53.62-3.82,1.15-6.88,1.59-1.73.25-2.96.53-3.67.84-.72.31-1.27.77-1.66,1.37-.39.6-.58,1.27-.58,2,0,1.12.43,2.06,1.28,2.81.85.75,2.1,1.12,3.73,1.12s3.07-.35,4.33-1.07c1.26-.71,2.19-1.68,2.78-2.91.45-.95.68-2.36.68-4.21v-1.54Z"/>
          <path class="cls-2" d="M199.9,323.92c-2.88,0-5.14-.73-6.72-2.17-1.6-1.45-2.41-3.33-2.41-5.58,0-1.32.31-2.54.91-3.64.6-1.09,1.4-1.98,2.38-2.64.95-.64,2.03-1.14,3.22-1.47.86-.23,2.15-.45,3.84-.65,3.06-.36,5.4-.8,6.97-1.28,0-.4.01-.57.01-.64,0-1.52-.33-2.58-.98-3.15-.95-.84-2.43-1.27-4.38-1.27-1.83,0-3.18.31-4.01.92-.82.6-1.44,1.72-1.85,3.33l-.14.55-5.36-.73.14-.67c.39-1.85,1.06-3.38,1.97-4.53.93-1.17,2.28-2.09,4-2.71,1.69-.61,3.65-.92,5.85-.92s4,.27,5.4.79c1.43.54,2.5,1.24,3.19,2.07.69.83,1.17,1.89,1.44,3.14.15.78.23,2.09.23,4.02v5.62c0,3.86.09,6.33.26,7.32.17.96.5,1.9.99,2.78l.53.94h-5.87l-.18-.35c-.32-.65-.57-1.37-.73-2.16-1.31,1.01-2.59,1.75-3.82,2.21-1.51.57-3.15.86-4.87.86ZM202.73,300.16c2.27,0,4.03.53,5.22,1.59.93.82,1.41,2.2,1.41,4.1,0,.17,0,.56-.02,1.12v.44s-.43.14-.43.14c-1.64.57-4.21,1.07-7.65,1.48-1.63.2-2.86.4-3.66.62-1.04.29-2,.73-2.84,1.29-.81.55-1.47,1.29-1.98,2.2-.5.91-.75,1.93-.75,3.03,0,1.91.65,3.42,1.99,4.64,1.34,1.22,3.31,1.84,5.87,1.84,1.57,0,3.06-.26,4.42-.78,1.37-.52,2.82-1.42,4.32-2.7l.92-.78.13,1.2c.1.93.31,1.77.62,2.5h2.97c-.31-.72-.54-1.47-.67-2.24-.19-1.08-.28-3.55-.28-7.54v-5.62c0-1.82-.07-3.09-.2-3.76-.22-1.04-.62-1.91-1.18-2.58-.55-.67-1.44-1.24-2.66-1.69-1.25-.47-2.91-.71-4.95-.71s-3.88.28-5.42.84c-1.5.54-2.66,1.32-3.44,2.3-.68.86-1.21,1.99-1.57,3.34l2.88.39c.49-1.62,1.22-2.79,2.18-3.49,1.07-.78,2.62-1.16,4.76-1.16ZM200.9,320.62c-1.79,0-3.19-.43-4.15-1.28-.99-.87-1.49-1.98-1.49-3.29,0-.85.23-1.64.69-2.35.46-.7,1.11-1.24,1.94-1.61.77-.34,2.03-.63,3.84-.89,2.99-.43,5.26-.95,6.73-1.55l.88-.36v2.49c0,1.97-.24,3.44-.74,4.49-.65,1.35-1.67,2.42-3.05,3.19-1.35.76-2.91,1.15-4.64,1.15ZM208.06,311.16c-1.53.5-3.59.94-6.16,1.31-1.67.24-2.85.51-3.51.8-.61.26-1.06.63-1.38,1.13-.32.5-.48,1.04-.48,1.66,0,.94.35,1.7,1.06,2.33.73.64,1.84.97,3.31.97s2.86-.33,4.02-.98c1.16-.65,1.98-1.51,2.52-2.64.41-.86.62-2.18.62-3.94v-.64Z"/>
        </g>
        <g>
          <path class="cls-2" d="M222.36,322.72v-24.85h3.79v3.53c1.82-2.73,4.46-4.1,7.91-4.1,1.5,0,2.88.27,4.13.81,1.26.54,2.2,1.24,2.82,2.12.62.87,1.06,1.91,1.31,3.11.16.78.23,2.15.23,4.1v15.28h-4.21v-15.12c0-1.72-.16-3-.49-3.85-.33-.85-.91-1.53-1.74-2.04-.84-.51-1.81-.76-2.94-.76-1.79,0-3.34.57-4.64,1.71-1.3,1.14-1.95,3.3-1.95,6.48v13.57h-4.21Z"/>
          <path class="cls-2" d="M243.19,323.36h-5.48v-15.75c0-1.63-.15-2.85-.45-3.62-.28-.72-.76-1.29-1.48-1.72-.73-.44-1.61-.67-2.61-.67-1.65,0-3.03.51-4.23,1.55-1.15,1.01-1.74,3.03-1.74,6v14.21h-5.48v-26.13h5.06v2.36c1.85-1.94,4.29-2.92,7.27-2.92,1.58,0,3.05.29,4.38.86,1.36.58,2.4,1.37,3.09,2.33.67.94,1.15,2.07,1.42,3.35.17.84.25,2.22.25,4.23v15.92ZM238.98,322.09h2.94v-14.65c0-1.9-.07-3.24-.22-3.97-.23-1.1-.64-2.07-1.21-2.87-.55-.77-1.41-1.41-2.55-1.9-1.17-.5-2.48-.76-3.88-.76-3.25,0-5.67,1.25-7.38,3.81l-1.16,1.74v-4.99h-2.52v23.58h2.94v-12.94c0-3.41.71-5.68,2.17-6.96,1.42-1.24,3.12-1.87,5.06-1.87,1.23,0,2.33.29,3.27.85.96.58,1.63,1.37,2.01,2.35.36.93.53,2.27.53,4.08v14.48Z"/>
        </g>
        <g>
          <path class="cls-2" d="M251.92,293.26v-4.84h4.21v4.84h-4.21ZM251.92,322.72v-24.85h4.21v24.85h-4.21Z"/>
          <path class="cls-2" d="M256.76,323.36h-5.48v-26.13h5.48v26.13ZM252.55,322.09h2.94v-23.58h-2.94v23.58ZM256.76,293.89h-5.48v-6.12h5.48v6.12ZM252.55,292.62h2.94v-3.57h-2.94v3.57Z"/>
        </g>
        <g>
          <path class="cls-2" d="M281.64,313.62l4.14.54c-.45,2.85-1.61,5.09-3.48,6.7-1.86,1.61-4.15,2.42-6.87,2.42-3.4,0-6.14-1.11-8.2-3.33-2.07-2.22-3.1-5.41-3.1-9.56,0-2.68.44-5.03,1.33-7.04.89-2.01,2.24-3.52,4.06-4.53,1.82-1.01,3.79-1.51,5.93-1.51,2.7,0,4.91.68,6.62,2.05,1.72,1.36,2.82,3.3,3.3,5.82l-4.1.63c-.39-1.67-1.08-2.93-2.07-3.77-.99-.84-2.19-1.26-3.59-1.26-2.12,0-3.85.76-5.17,2.28-1.33,1.52-1.99,3.93-1.99,7.22s.64,5.77,1.92,7.28c1.28,1.51,2.95,2.27,5.01,2.27,1.65,0,3.03-.51,4.14-1.52,1.11-1.01,1.81-2.57,2.11-4.68Z"/>
          <path class="cls-2" d="M275.43,323.92c-3.57,0-6.49-1.19-8.67-3.54-2.17-2.33-3.27-5.7-3.27-9.99,0-2.76.47-5.22,1.39-7.3.94-2.13,2.4-3.76,4.33-4.83,1.91-1.05,4.01-1.59,6.24-1.59,2.83,0,5.2.74,7.02,2.19,1.83,1.46,3.02,3.54,3.53,6.19l.12.65-5.33.82-.13-.57c-.36-1.53-.98-2.68-1.86-3.43-.88-.75-1.92-1.11-3.18-1.11-1.95,0-3.48.68-4.69,2.06-1.22,1.39-1.83,3.68-1.83,6.8s.6,5.48,1.77,6.87c1.16,1.38,2.64,2.04,4.52,2.04,1.5,0,2.72-.44,3.71-1.35.99-.91,1.63-2.35,1.91-4.3l.09-.62,5.41.7-.1.65c-.48,2.99-1.72,5.38-3.69,7.09-1.97,1.71-4.43,2.58-7.28,2.58ZM275.46,297.94c-2.02,0-3.91.48-5.62,1.43-1.68.93-2.96,2.36-3.79,4.23-.85,1.92-1.28,4.21-1.28,6.79,0,3.97.99,7.04,2.93,9.13,1.96,2.11,4.49,3.13,7.74,3.13,2.55,0,4.72-.76,6.45-2.27,1.6-1.38,2.66-3.29,3.15-5.68l-2.87-.37c-.36,1.94-1.1,3.43-2.2,4.44-1.22,1.12-2.76,1.69-4.57,1.69-2.25,0-4.09-.84-5.49-2.5-1.37-1.62-2.07-4.21-2.07-7.69s.72-6,2.15-7.64c1.44-1.66,3.35-2.5,5.65-2.5,1.55,0,2.9.48,4,1.41.97.83,1.69,2.02,2.13,3.54l2.86-.44c-.51-2.04-1.49-3.65-2.93-4.79-1.59-1.27-3.69-1.91-6.23-1.91Z"/>
        </g>
      </g>
      <g>
        <g>
          <path class="cls-1" d="M371.46,189.32c2.28,2.28,3.41,5.06,3.41,8.36s-1.14,6.06-3.41,8.33c-2.27,2.28-5.06,3.41-8.36,3.41s-6.06-1.13-8.33-3.41c-2.28-2.27-3.41-5.05-3.41-8.33s1.14-6.09,3.41-8.36c2.27-2.28,5.05-3.41,8.33-3.41s6.09,1.13,8.36,3.41ZM370.31,190.47c-1.97-1.97-4.37-2.95-7.21-2.95s-5.24.98-7.19,2.95c-1.96,1.97-2.94,4.37-2.94,7.21s.98,5.23,2.94,7.19c1.96,1.96,4.36,2.94,7.19,2.94s5.24-.98,7.21-2.94c1.97-1.96,2.95-4.36,2.95-7.19s-.99-5.24-2.95-7.21ZM358.98,203.86v-12.48h4.63c1.02,0,1.88.35,2.58,1.06.7.7,1.05,1.56,1.05,2.58s-.35,1.89-1.06,2.6c-.33.33-.71.59-1.13.77l2.19,5.47h-2.25l-2.06-5.21h-2.07v5.21h-1.89ZM365.36,195.02c0-.49-.17-.9-.51-1.24-.34-.34-.76-.51-1.25-.51h-2.73v3.5h2.73c.49,0,.9-.17,1.25-.51.34-.34.51-.75.51-1.24Z"/>
          <path class="cls-1" d="M363.1,209.55c-3.31,0-6.14-1.16-8.42-3.45-2.29-2.28-3.45-5.12-3.45-8.42s1.16-6.17,3.45-8.45c2.28-2.29,5.12-3.45,8.42-3.45s6.17,1.16,8.45,3.45h0c2.29,2.29,3.45,5.13,3.45,8.45s-1.16,6.14-3.45,8.42c-2.28,2.29-5.12,3.45-8.45,3.45ZM363.1,186.03c-3.24,0-6.01,1.13-8.24,3.37-2.24,2.24-3.37,5.02-3.37,8.27s1.14,6.01,3.37,8.24c2.23,2.24,5.01,3.37,8.25,3.37s6.04-1.14,8.27-3.37c2.24-2.24,3.37-5.01,3.37-8.24s-1.14-6.04-3.37-8.27h0c-2.23-2.24-5.02-3.37-8.27-3.37ZM363.1,207.94c-2.86,0-5.31-1-7.28-2.97-1.97-1.97-2.98-4.42-2.98-7.28s1-5.31,2.97-7.3c1.97-1.98,4.42-2.99,7.28-2.99s5.32,1.01,7.3,2.99c1.98,1.98,2.99,4.44,2.99,7.3s-1.01,5.31-2.99,7.28c-1.99,1.97-4.44,2.97-7.3,2.97ZM363.1,187.65c-2.79,0-5.18.98-7.1,2.91-1.92,1.93-2.9,4.33-2.9,7.12s.98,5.18,2.9,7.1c1.92,1.92,4.31,2.9,7.1,2.9s5.18-.98,7.12-2.9c1.93-1.93,2.91-4.32,2.91-7.1s-.98-5.18-2.92-7.12h0c-1.93-1.93-4.32-2.92-7.12-2.92ZM367.43,203.98h-2.52l-2.06-5.21h-1.85v5.21h-2.14v-12.73h4.75c1.05,0,1.95.37,2.67,1.09.72.73,1.09,1.63,1.09,2.67s-.37,1.96-1.1,2.69c-.31.31-.67.56-1.06.75l2.22,5.53ZM365.08,203.73h1.97l-2.17-5.42.11-.05c.41-.17.77-.42,1.09-.74.68-.68,1.02-1.52,1.02-2.51s-.34-1.82-1.01-2.49c-.68-.68-1.51-1.02-2.49-1.02h-4.5v12.22h1.63v-5.21h2.28l2.06,5.21ZM363.6,196.9h-2.86v-3.75h2.86c.52,0,.97.18,1.34.54.36.37.55.82.55,1.33s-.18.96-.55,1.33c-.36.36-.81.55-1.34.55ZM361,196.64h2.6c.46,0,.84-.16,1.16-.47.32-.32.47-.7.47-1.15s-.16-.83-.47-1.15c-.32-.32-.7-.47-1.16-.47h-2.6v3.25Z"/>
        </g>
        <g>
          <g>
            <path class="cls-1" d="M25.64,264.26v-55.57h22.59c3.95,0,6.96.33,9.05,1.01,2.8.93,5.02,2.7,6.66,5.32,1.64,2.61,2.46,5.55,2.46,8.81,0,8.7-4.79,13.74-14.38,15.14,1.81.98,3.16,1.91,4.06,2.79,2.09,2.01,3.97,4.47,5.63,7.37l8.84,15.13h-8.53l-6.65-11.57c-1.28-2.17-2.54-4.19-3.77-6.05-2.66-3.93-5.2-6.18-7.61-6.75-.86-.21-2.11-.31-3.78-.31h-7.83v24.69h-6.73ZM32.37,233.2h14.51c5.74,0,9.46-1.45,11.16-4.35.9-1.55,1.35-3.24,1.35-5.04,0-6.01-3.63-9.01-10.88-9.01h-16.14v18.4Z"/>
            <path class="cls-1" d="M71.64,264.89h-10l-6.83-11.89c-1.25-2.12-2.51-4.15-3.75-6.02-2.55-3.77-4.98-5.95-7.23-6.49-.81-.19-2.03-.29-3.63-.29h-7.2v24.69h-8v-56.84h23.22c4.06,0,7.08.34,9.25,1.04,2.94.97,5.29,2.85,7,5.58,1.7,2.7,2.56,5.78,2.56,9.14,0,8.47-4.43,13.67-13.19,15.46,1.12.69,2,1.36,2.67,2.01,2.12,2.04,4.05,4.57,5.74,7.51l9.39,16.08ZM62.38,263.62h7.05l-8.28-14.18c-1.63-2.84-3.48-5.27-5.52-7.23-.86-.84-2.18-1.74-3.93-2.69l-1.68-.91,1.89-.28c9.31-1.36,13.84-6.1,13.84-14.51,0-3.12-.79-5.97-2.36-8.47-1.55-2.48-3.68-4.18-6.32-5.05-2.01-.65-4.99-.98-8.85-.98h-21.95v54.3h5.46v-24.69h8.47c1.73,0,3.01.11,3.92.33,2.6.62,5.22,2.91,7.99,7.02,1.25,1.89,2.53,3.94,3.79,6.09l6.47,11.26ZM46.88,233.83h-15.14v-19.67h16.78c3.76,0,6.64.81,8.56,2.4,1.96,1.62,2.95,4.06,2.95,7.25,0,1.91-.48,3.72-1.44,5.36-1.82,3.1-5.76,4.67-11.71,4.67ZM33,232.56h13.87c5.47,0,9.04-1.36,10.61-4.04.84-1.45,1.26-3.03,1.26-4.72,0-5.63-3.35-8.37-10.24-8.37h-15.51v17.13Z"/>
          </g>
          <g>
            <path class="cls-1" d="M90.57,216.5v-7.81h6.28v7.81h-6.28ZM90.57,264.26v-40.31h6.28v40.31h-6.28Z"/>
            <path class="cls-1" d="M97.49,264.89h-7.55v-41.58h7.55v41.58ZM91.21,263.62h5.01v-39.04h-5.01v39.04ZM97.49,217.14h-7.55v-9.08h7.55v9.08ZM91.21,215.87h5.01v-6.54h-5.01v6.54Z"/>
          </g>
          <g>
            <path class="cls-1" d="M123.92,264.26v-55.57h19.19c7.32,0,12.29,2.31,14.9,6.91,1.33,2.33,2,4.76,2,7.29,0,5.33-2.39,9.26-7.15,11.79,6.44,2.13,9.67,6.6,9.67,13.43,0,10.77-6.38,16.14-19.13,16.14h-19.48ZM130.66,232.03h11.07c3,0,5.14-.21,6.43-.62,3.47-1.13,5.21-3.66,5.21-7.58,0-4.12-1.57-6.7-4.71-7.73-1.57-.51-4.17-.77-7.79-.77h-10.21v16.7ZM130.66,257.7h12.72c2.1,0,3.64-.1,4.64-.31,5-1.03,7.5-4.13,7.5-9.29,0-4.39-1.86-7.25-5.57-8.6-1.71-.62-4.22-.93-7.5-.93h-11.79v19.12Z"/>
            <path class="cls-1" d="M143.4,264.89h-20.11v-56.84h19.82c7.53,0,12.73,2.43,15.46,7.23,1.38,2.41,2.08,4.97,2.08,7.61,0,5.09-2.12,9.01-6.3,11.66,5.85,2.38,8.81,6.93,8.81,13.56,0,11.13-6.65,16.78-19.76,16.78ZM124.56,263.62h18.84c6.19,0,10.88-1.31,13.93-3.89,3.02-2.55,4.56-6.46,4.56-11.62,0-6.58-3.02-10.77-9.23-12.82l-1.41-.47,1.31-.7c4.58-2.44,6.81-6.11,6.81-11.23,0-2.41-.64-4.76-1.91-6.98-2.49-4.37-7.32-6.59-14.35-6.59h-18.55v54.3ZM143.37,258.34h-13.35v-20.39h12.43c3.35,0,5.94.32,7.72.96,3.98,1.44,5.99,4.53,5.99,9.19,0,5.48-2.7,8.82-8.01,9.91-1.05.22-2.61.32-4.77.32ZM131.29,257.07h12.08c2.04,0,3.56-.1,4.52-.3,4.71-.97,7-3.8,7-8.66,0-4.13-1.69-6.74-5.15-8-1.63-.59-4.09-.89-7.28-.89h-11.16v17.85ZM141.73,232.67h-11.71v-17.97h10.85c3.72,0,6.33.26,7.98.8,3.42,1.12,5.15,3.92,5.15,8.33s-1.9,6.96-5.65,8.18c-1.36.44-3.53.65-6.62.65ZM131.29,231.4h10.43c2.92,0,5.02-.2,6.23-.59,3.21-1.05,4.77-3.33,4.77-6.97,0-3.85-1.4-6.18-4.28-7.12-1.5-.49-4.06-.74-7.59-.74h-9.57v15.43Z"/>
          </g>
          <g>
            <path class="cls-1" d="M183.24,264.26l19.53-55.57h7.27l20.88,55.57h-7.67l-5.96-16.88h-21.27l-5.65,16.88h-7.13ZM197.95,241.36h17.28l-5.36-15.29c-1.65-4.87-2.85-8.73-3.61-11.58-.66,3.83-1.56,7.38-2.69,10.64l-5.61,16.24Z"/>
            <path class="cls-1" d="M231.84,264.89h-9.04l-5.96-16.88h-20.36l-5.65,16.88h-8.49l19.97-56.84h8.16l21.36,56.84ZM223.7,263.62h6.31l-20.41-54.3h-6.38l-19.08,54.3h5.78l5.65-16.88h22.18l5.96,16.88ZM216.12,242h-19.06l5.91-17.08c1.11-3.21,2.01-6.75,2.66-10.54l.49-2.86.75,2.81c.76,2.86,1.97,6.74,3.6,11.54l5.66,16.13ZM198.84,240.73h15.49l-5.07-14.45c-1.19-3.51-2.16-6.53-2.89-9.02-.6,2.86-1.34,5.57-2.21,8.08l-5.32,15.39Z"/>
          </g>
          <g>
            <path class="cls-1" d="M250.63,264.26v-55.57h6.92l26.84,43.61v-43.61h6.46v55.57h-6.8l-26.95-43.79v43.79h-6.46Z"/>
            <path class="cls-1" d="M291.49,264.89h-7.79l-.19-.3-25.78-41.88v42.18h-7.73v-56.84h7.91l.19.3,25.66,41.7v-42.01h7.73v56.84ZM284.4,263.62h5.81v-54.3h-5.19v45.22l-27.83-45.22h-5.92v54.3h5.19v-45.4l27.94,45.4Z"/>
          </g>
          <g>
            <path class="cls-1" d="M308.02,264.26l19.53-55.57h7.27l20.88,55.57h-7.67l-5.96-16.88h-21.27l-5.65,16.88h-7.13ZM322.72,241.36h17.28l-5.36-15.29c-1.65-4.87-2.86-8.73-3.61-11.58-.66,3.83-1.56,7.38-2.69,10.64l-5.61,16.24Z"/>
            <path class="cls-1" d="M356.62,264.89h-9.04l-5.96-16.88h-20.36l-5.65,16.88h-8.49l19.97-56.84h8.16l21.36,56.84ZM348.48,263.62h6.31l-20.4-54.3h-6.38l-19.08,54.3h5.78l5.65-16.88h22.18l5.96,16.88ZM340.89,242h-19.06l5.91-17.08c1.12-3.22,2.01-6.76,2.67-10.54l.5-2.87.74,2.82c.75,2.85,1.97,6.74,3.6,11.54l5.65,16.13ZM323.62,240.73h15.49l-5.06-14.45c-1.19-3.51-2.16-6.53-2.89-9.02-.6,2.86-1.34,5.56-2.21,8.07l-5.32,15.39Z"/>
          </g>
        </g>
      </g>
    </g>
    <rect class="cls-3" width="400" height="400"/>
  </g>
</svg>