<?xml version="1.0" encoding="UTF-8"?>
<svg id="Layer_2" data-name="Layer 2" xmlns="http://www.w3.org/2000/svg" viewBox="0 0 400 400">
  <defs>
    <style>
      .cls-1 {
        fill: #fff;
      }

      .cls-2 {
        fill: none;
      }

      .cls-3 {
        fill-rule: evenodd;
      }

      .cls-3, .cls-4 {
        fill: #56c5d0;
      }

      .cls-5 {
        fill: #029dd9;
      }
    </style>
  </defs>
  <g id="Layer_1-2" data-name="Layer 1">
    <g>
      <rect class="cls-2" width="400" height="400"/>
      <g>
        <g>
          <polygon class="cls-4" points="201.38 305.76 295.07 305.7 295.07 277.86 333.56 220.09 201.38 220.15 201.38 305.76"/>
          <rect class="cls-1" x="204.66" y="226.67" width="10.49" height="72.47"/>
          <path class="cls-3" d="M123.48,244.59c-3.53-5.45-8.66-9.85-15.25-13.04-6.52-3.16-14.41-4.8-23.47-4.87h-18.32v9.48h18.28c7.1.06,13.2,1.31,18.15,3.72,4.94,2.4,8.61,5.53,11.21,9.54,2.62,4.04,3.91,8.47,3.93,13.48-.03,4.97-1.35,9.52-3.93,13.5-2.57,3.97-6.34,7.18-11.22,9.54-4.93,2.41-11.04,3.66-18.1,3.72h-4.81c-1.67,0-3.02-1.22-3.02-2.73v-22.23c0-1.54-1.38-2.8-3.09-2.8h-7.4v34.51c0,1.51,1.35,2.73,3.02,2.73h15.34c9.04-.08,16.93-1.73,23.44-4.91,6.58-3.22,11.71-7.61,15.24-13.07,3.51-5.43,5.31-11.57,5.34-18.28-.03-6.72-1.83-12.87-5.34-18.3Z"/>
          <g>
            <path class="cls-4" d="M186.05,297.24l-22.48-47.97c-1.29-2.75-5.59-2.75-6.88,0l-22.42,47.81c-.59,1.25-1.94,2.06-3.44,2.06h-8.67l33.98-72.47h7.98l33.98,72.47h-8.85c-1.39,0-2.64-.75-3.19-1.91Z"/>
            <path class="cls-3" d="M173.67,288.7h-17.84c-5.11,0-9.25-4.14-9.25-9.25v-1.24h19.08c4.42,0,8.01,3.58,8.01,8.01v2.48Z"/>
          </g>
          <path class="cls-1" d="M288.49,299.15v-23.07l32.72-49.4h-8.67c-1.5,0-2.85.81-3.44,2.06l-22.42,31.93c-1.29,2.75-5.59,2.75-6.88,0l-22.32-32.46c-.66-.95-1.81-1.53-3.05-1.53h-9.15l32.72,49.4v23.07h10.49Z"/>
          <path class="cls-1" d="M229.19,299.15c-2.06,0-3.74-1.51-3.74-3.38v-69.09h10.49v59.6c0,1.87,1.67,3.38,3.74,3.38h28.53c1.71,0,3.09,1.25,3.09,2.8v6.69h-42.11Z"/>
        </g>
        <g>
          <path class="cls-5" d="M115.9,132.54l4.1-4.41c3.89,3.28,7.78,5.15,12.83,5.15,4.36,0,7.4-2.5,7.4-5.43v-.11c0-2.76-1.89-4.25-9.35-5.91-8.55-1.99-13.37-4.42-13.37-11.54v-.11c0-6.62,5.74-11.2,13.72-11.2,5.29,0,9.59,1.4,13.38,3.99.67.45.8,1.38.3,2.02l-.07.09c-1.44,1.84-3.98,2.39-6.06,1.33-2.54-1.3-5.09-1.98-7.67-1.98-4.13,0-7.12,2.62-7.12,5.15v.11c0,2.98,2.41,4.88,10.1,6.64,8.49,1.99,12.63,4.34,12.63,10.74v.11c0,7.23-5.63,11.54-14.06,11.54-6.14,0-11.94-2.04-16.76-6.18"/>
          <path class="cls-5" d="M163.41,118.96v-.11c0-10.81,8.34-19.86,20.14-19.86s20.03,8.94,20.03,19.75v.11c0,10.81-8.34,19.86-20.14,19.86s-20.03-8.94-20.03-19.75M197.41,118.96v-.11c0-7.46-6.35-14.58-13.97-14.58s-13.86,7.01-13.86,14.47v.11c0,7.46,6.35,14.57,13.97,14.57s13.86-7,13.86-14.46"/>
          <path class="cls-5" d="M209.19,118.86v-18.64c0-.94.24-1.2,1.13-1.2,3.85,0,7.71-.09,11.56.04,5.2.17,9.8,2.05,13.52,5.97,2.89,3.05,4.57,6.75,5.07,11.03.47,3.97.05,7.82-1.66,11.43-2.6,5.5-6.85,8.9-12.44,10.5-1.83.53-3.71.73-5.61.72-3.49,0-6.99,0-10.48,0-.83,0-1.09-.28-1.09-1.16,0-6.23,0-12.45,0-18.68M214.64,133.21c2.13,0,4.23,0,6.32,0,1.46,0,2.9-.19,4.3-.62,3.88-1.18,6.85-3.55,8.57-7.47,1.2-2.72,1.45-5.6,1.07-8.55-.38-2.94-1.5-5.53-3.48-7.68-2.53-2.74-5.67-4.09-9.24-4.3-2.44-.15-4.9-.07-7.35-.09-.06,0-.12.02-.19.04v28.66"/>
          <path class="cls-5" d="M251.71,119.84v17.73c0,.91-.23,1.15-1.13,1.15-1.11,0-2.21,0-3.32,0-.7,0-.99-.29-.99-1,0-11.91,0-25.8,0-37.72,0-.7.3-1,.99-1,1.13,0,2.27,0,3.4,0,.78,0,1.05.27,1.05,1.06v19.79Z"/>
          <path class="cls-5" d="M152.35,119.82v-19.7c0-.87.24-1.12,1.11-1.12,1.13,0,2.27,0,3.4,0,.59,0,.91.32.93.91,0,.08,0,.16,0,.24,0,11.82,0,25.61,0,37.43,0,.28-.05.62-.21.82-.14.18-.47.3-.73.31-1.17.03-2.35.02-3.52.01-.7,0-.98-.29-.98-1.01v-17.89"/>
          <path class="cls-5" d="M281.32,137.88c-.27.76-.39.84-1.22.84h-21.62c-.9,0-1.14-.24-1.14-1.13v-37.48c0-.88.28-1.14,1.16-1.11,2.29.09,4.27,2.18,4.27,4.53,0,9.14,0,20.26,0,29.4v.57h.53c5.13,0,11.66,0,16.78,0,.62,0,1.05.18,1.24.79v3.6"/>
          <path class="cls-5" d="M275.77,103.32v6.02c0,.42-.34.76-.76.76h-.55c-.42,0-.76-.34-.76-.76v-3.95c0-.42-.34-.76-.76-.76h-3.95c-.42,0-.76-.34-.76-.76v-.55c0-.42.34-.76.76-.76h6.02c.42,0,.76.34.76.76M283.34,102.57h-6.02c-.42,0-.76.34-.76.76v6.02c0,.42.34.76.76.76h.55c.42,0,.76-.34.76-.76v-3.95c0-.42.34-.76.76-.76h3.95c.42,0,.76-.34.76-.76v-.55c0-.42-.34-.76-.76-.76M283.34,99.71h-3.95c-.42,0-.76-.34-.76-.76v-3.95c0-.42-.34-.76-.76-.76h-.55c-.42,0-.76.34-.76.76v6.02c0,.42.34.76.76.76h6.02c.42,0,.76-.34.76-.76v-.55c0-.42-.34-.76-.76-.76M275.01,94.24h-.55c-.42,0-.76.34-.76.76v3.95c0,.42-.34.76-.76.76h-3.95c-.42,0-.76.34-.76.76v.55c0,.42.34.76.76.76h6.02c.42,0,.76-.34.76-.76v-6.02c0-.42-.34-.76-.76-.76"/>
        </g>
        <path class="cls-4" d="M191.61,178.02c-3.92,1.4-8.23-.64-9.62-4.56-1.4-3.92.64-8.23,4.56-9.62,3.92-1.4,8.23.64,9.62,4.56,1.4,3.92-.64,8.23-4.56,9.62Z"/>
        <path class="cls-4" d="M212.35,194.19c-3.21,1.15-6.74-.53-7.89-3.74-1.15-3.21.53-6.74,3.74-7.89,3.21-1.15,6.74.53,7.89,3.74,1.15,3.21-.53,6.74-3.74,7.89Z"/>
        <path class="cls-4" d="M203.62,163.66c-4.9,4.73-.96,11.39-4.46,15.41-3.76,3.72-11.66,2.36-15.02,6.81-6.71,8.84,4.89,19.7,13.26,12.35,5.25-5.06,1.03-12.37,4.78-16.68,3.51-3.48,10.69-2.2,13.83-6.36,6.26-8.26-4.56-18.4-12.39-11.53Z"/>
        <g>
          <polygon class="cls-4" points="306.85 299.99 305.81 303.92 304.77 299.99 303.02 299.99 303.02 305.76 304.11 305.76 304.11 301.21 305.25 305.76 306.37 305.76 307.51 301.21 307.51 305.76 308.6 305.76 308.6 299.98 306.85 299.99"/>
          <polygon class="cls-4" points="297.7 300.96 299.41 300.96 299.41 305.76 300.58 305.76 300.58 300.96 302.29 300.96 302.29 299.98 297.7 299.98 297.7 300.96"/>
        </g>
      </g>
    </g>
  </g>
</svg>